# Mesh Id
o cube

# Vertex Positions
v -0.5 -0.5 0.5
v -0.5 -0.5 -0.5
v 0.5 -0.5 -0.5
v 0.5 -0.5 0.5
v -0.5 0.5 0.5
v -0.5 0.5 -0.5
v 0.5 0.5 -0.5
v 0.5 0.5 0.5

# Vertex Normals
vn -1.0 0.0 0.0
vn 0.0 0.0 -1.0
vn 1.0 -0.0 0.0
vn 0.0 -0.0 1.0
vn 0.0 -1.0 0.0
vn 0.0 1.0 0.0

# Texture Coordinates
vt 0 0
vt 0 1
vt 1 0
vt 1 1

# Triangle face indices: vertex/texture/normal
# Indices start at 1
f 5/4/1 6/3/1 2/1/1
f 6/4/2 7/3/2 3/1/2
f 7/4/3 8/3/3 4/1/3
f 5/3/4 1/1/4 8/4/4
f 1/1/5 2/3/5 3/4/5
f 8/2/6 7/4/6 6/3/6
f 1/2/1 5/4/1 2/1/1
f 2/2/2 6/4/2 3/1/2
f 3/2/3 7/4/3 4/1/3
f 8/4/4 1/1/4 4/2/4
f 4/2/5 1/1/5 3/4/5
f 5/1/6 8/2/6 6/3/6
